# File created by Blade
# Date/Time:  Wed Apr 08 14:10:35 2015
# Frame Rate: 120.000 fps
#------------------------------------------------------
:FULLY-SPECIFIED
:DEGREES
876
root 1.191320 32.966437 14.437861 9.834275 2.087078 -1.592725
Spine -13.830429 -6.643358 1.219298
Head 12.237263 -2.861014 -0.247303
LeftShoulder -22.822758 41.815030 19.086345
LeftArm 59.218182 -58.064792 -61.293456
LeftForeArm 10.985703 0.000000 -2.431711
LeftHand 1.835582 -0.000000 3.640062
LeftHandThumb1 -26.253704 0.000000 33.147579
RightShoulder -7.572765 2.342595 -30.715353
RightArm 12.657711 14.320920 40.260447
RightForeArm -15.512572 -0.000000 0.853292
RightHand 0.372642 -0.000000 2.007175
RightHandThumb1 -24.326973 -0.000000 -32.862282
LeftUpLeg -4.886071 -7.416559 1.860172
LeftLeg -1.331968 -0.000000 0.000000
LeftFoot -7.556220 8.495023 -17.181497
LeftToeBase -6.223457 -0.000000 0.000000
RightUpLeg -3.334761 5.850886 4.137700
RightLeg -3.480162 -0.000000 0.000000
RightFoot -5.609967 -14.929671 6.345654
RightToeBase -4.562314 -0.000000 0.000000
877
root 1.196575 32.966037 14.439513 9.834319 2.106729 -1.625487
Spine -13.845668 -6.627488 1.266584
Head 12.299305 -2.854377 -0.291706
LeftShoulder -22.786737 41.802814 19.108713
LeftArm 59.222190 -58.045383 -61.326773
LeftForeArm 11.043240 -0.000000 -2.443509
LeftHand 1.805894 -0.000000 3.585950
LeftHandThumb1 -26.253704 0.000000 33.147579
RightShoulder -7.572669 2.374869 -30.734843
RightArm 12.652786 14.351352 40.236542
RightForeArm -15.526016 -0.000000 0.855319
RightHand 0.475013 0.000000 1.944706
RightHandThumb1 -24.326973 -0.000000 -32.862282
LeftUpLeg -4.874086 -7.421321 1.888376
LeftLeg -1.360893 -0.000000 0.000000
LeftFoot -7.500125 8.425597 -17.374224
LeftToeBase -6.547334 -0.000000 0.000000
RightUpLeg -3.328453 5.844670 4.166974
RightLeg -3.486427 -0.000000 0.000000
RightFoot -5.600317 -14.947081 6.346252
RightToeBase -4.574295 -0.000000 0.000000
878
root 1.203065 32.966704 14.441304 9.834849 2.127298 -1.639296
Spine -13.860629 -6.612226 1.290276
Head 12.354585 -2.847129 -0.320443
LeftShoulder -22.768011 41.798883 19.116940
LeftArm 59.277076 -58.032266 -61.391772
LeftForeArm 11.098970 -0.000000 -2.455800
LeftHand 1.769949 0.000000 3.595377
LeftHandThumb1 -26.253704 0.000000 33.147579
RightShoulder -7.578648 2.364251 -30.745196
RightArm 12.676183 14.364105 40.198873
RightForeArm -15.512717 -0.000000 0.848171
RightHand 0.536455 -0.000000 1.895843
RightHandThumb1 -24.326973 -0.000000 -32.862282
LeftUpLeg -4.865639 -7.443778 1.896922
LeftLeg -1.380030 -0.000000 0.000000
LeftFoot -7.477626 8.402614 -17.384914
LeftToeBase -6.568030 -0.000000 0.000000
RightUpLeg -3.331022 5.809350 4.177251
RightLeg -3.475858 -0.000000 0.000000
RightFoot -5.600590 -14.944394 6.346463
RightToeBase -4.593816 -0.000000 0.000000
879
root 1.209889 32.967319 14.442958 9.831417 2.146956 -1.649723
Spine -13.874285 -6.602774 1.320543
Head 12.427193 -2.839540 -0.386561
LeftShoulder -22.736666 41.796506 19.111745
LeftArm 59.231479 -58.019928 -61.352092
LeftForeArm 11.089378 -0.000000 -2.460372
LeftHand 1.791669 -0.000000 3.610373
LeftHandThumb1 -26.253704 0.000000 33.147579
RightShoulder -7.560313 2.406941 -30.775435
RightArm 12.626829 14.386118 40.150011
RightForeArm -15.579990 -0.000000 0.899890
RightHand 0.432448 -0.000000 1.959634
RightHandThumb1 -24.326973 -0.000000 -32.862282
LeftUpLeg -4.852401 -7.491498 1.904127
LeftLeg -1.399868 -0.000000 0.000000
LeftFoot -7.470643 8.423887 -17.390558
LeftToeBase -6.559580 -0.000000 0.000000
RightUpLeg -3.323003 5.829994 4.181967
RightLeg -3.479605 -0.000000 0.000000
RightFoot -5.591874 -15.010640 6.292907
RightToeBase -4.590460 -0.000000 0.000000
880
root 1.215729 32.968036 14.444475 9.817992 2.176400 -1.673903
Spine -13.866226 -6.602891 1.359596
Head 12.447528 -2.843804 -0.408549
LeftShoulder -22.749086 41.786532 19.094442
LeftArm 59.382016 -58.036870 -61.508772
LeftForeArm 11.214131 -0.000000 -2.472497
LeftHand 1.840974 -0.000000 3.856771
LeftHandThumb1 -26.253704 0.000000 33.147579
RightShoulder -7.570414 2.440397 -30.807326
RightArm 12.618757 14.357506 40.098993
RightForeArm -15.558225 -0.000000 0.912378
RightHand 0.535332 -0.000000 1.800522
RightHandThumb1 -24.326973 -0.000000 -32.862282
LeftUpLeg -4.839145 -7.471247 1.919083
LeftLeg -1.401808 -0.000000 0.000000
LeftFoot -7.444031 8.369613 -17.390247
LeftToeBase -6.626655 -0.000000 0.000000
RightUpLeg -3.312371 5.810708 4.207037
RightLeg -3.470325 -0.000000 0.000000
RightFoot -5.579068 -15.040983 6.263858
RightToeBase -4.596335 -0.000000 0.000000
881
root 1.223196 32.969288 14.446007 9.812693 2.203431 -1.679950
Spine -13.870113 -6.601842 1.383014
Head 12.480435 -2.836216 -0.446405
LeftShoulder -22.750216 41.784484 19.080049
LeftArm 59.278112 -57.982695 -61.405300
LeftForeArm 11.120626 -0.000000 -2.416189
LeftHand 1.779536 0.000000 3.890773
LeftHandThumb1 -26.253704 0.000000 33.147579
RightShoulder -7.567182 2.456897 -30.837200
RightArm 12.597347 14.362872 40.030920
RightForeArm -15.536952 -0.000000 0.950762
RightHand 0.518790 -0.000000 1.850897
RightHandThumb1 -24.326973 -0.000000 -32.862282
LeftUpLeg -4.833638 -7.507105 1.922706
LeftLeg -1.401730 -0.000000 0.000000
LeftFoot -7.440884 8.352142 -17.422672
LeftToeBase -6.580022 -0.000000 0.000000
RightUpLeg -3.303752 5.806454 4.209831
RightLeg -3.472071 -0.000000 0.000000
RightFoot -5.566702 -15.088485 6.246345
RightToeBase -4.555669 -0.000000 0.000000
882
root 1.229756 32.969778 14.447515 9.809254 2.214044 -1.691770
Spine -13.883377 -6.608347 1.414471
Head 12.544358 -2.793971 -0.494499
LeftShoulder -22.776801 41.799656 19.048091
LeftArm 59.281489 -57.978156 -61.405465
LeftForeArm 11.075415 -0.000000 -2.401445
LeftHand 1.830492 0.000000 3.851109
LeftHandThumb1 -26.253704 0.000000 33.147579
RightShoulder -7.528897 2.465812 -30.862004
RightArm 12.578512 14.362049 39.950940
RightForeArm -15.521436 -0.000000 0.985243
RightHand 0.397076 0.000000 1.826420
RightHandThumb1 -24.326973 -0.000000 -32.862282
LeftUpLeg -4.824240 -7.485775 1.919862
LeftLeg -1.407468 -0.000000 0.000000
LeftFoot -7.468814 8.372811 -17.231420
LeftToeBase -6.281267 -0.000000 0.000000
RightUpLeg -3.314746 5.821833 4.216976
RightLeg -3.441264 -0.000000 0.000000
RightFoot -5.562533 -15.140033 6.195340
RightToeBase -4.627090 -0.000000 0.000000
883
root 1.236638 32.970996 14.449040 9.802095 2.227049 -1.692788
Spine -13.878451 -6.606972 1.425081
Head 12.548263 -2.785806 -0.500802
LeftShoulder -22.794801 41.782954 19.040892
LeftArm 59.173989 -57.934185 -61.309837
LeftForeArm 10.997191 -0.000000 -2.342380
LeftHand 1.823535 -0.000000 3.829719
LeftHandThumb1 -26.253704 0.000000 33.147579
RightShoulder -7.549723 2.465243 -30.897067
RightArm 12.611117 14.394920 39.913256
RightForeArm -15.532691 0.000000 0.982041
RightHand 0.544163 -0.000000 1.641762
RightHandThumb1 -24.326973 -0.000000 -32.862282
LeftUpLeg -4.802487 -7.523946 1.923565
LeftLeg -1.440736 -0.000000 0.000000
LeftFoot -7.394387 8.301157 -17.462475
LeftToeBase -6.500910 -0.000000 0.000000
RightUpLeg -3.317075 5.824636 4.214650
RightLeg -3.419863 -0.000000 0.000000
RightFoot -5.564443 -15.179763 6.190442
RightToeBase -4.603121 -0.000000 0.000000
884
root 1.243577 32.971729 14.450550 9.794409 2.236955 -1.691660
Spine -13.881337 -6.593013 1.434277
Head 12.588839 -2.770918 -0.539005
LeftShoulder -22.757049 41.737828 19.055958
LeftArm 59.156492 -57.966380 -61.311025
LeftForeArm 11.030559 -0.000000 -2.338509
LeftHand 1.865089 -0.000000 3.805289
LeftHandThumb1 -26.253704 0.000000 33.147579
RightShoulder -7.544486 2.482062 -30.932085
RightArm 12.585514 14.410201 39.837130
RightForeArm -15.574532 -0.000000 1.027194
RightHand 0.362003 0.000000 1.719715
RightHandThumb1 -24.326973 -0.000000 -32.862282
LeftUpLeg -4.787798 -7.519332 1.916376
LeftLeg -1.451722 -0.000000 0.000000
LeftFoot -7.372395 8.242335 -17.515314
LeftToeBase -6.505273 -0.000000 0.000000
RightUpLeg -3.324444 5.837330 4.209631
RightLeg -3.382712 -0.000000 0.000000
RightFoot -5.569053 -15.244705 6.122082
RightToeBase -4.605687 -0.000000 0.000000
885
root 1.250028 32.972752 14.451402 9.789734 2.245995 -1.692916
Spine -13.879019 -6.600244 1.445498
Head 12.598571 -2.762234 -0.548781
LeftShoulder -22.801742 41.745376 19.023438
LeftArm 59.200637 -57.977716 -61.357124
LeftForeArm 11.024163 -0.000000 -2.299028
LeftHand 1.814243 -0.000000 3.781510
LeftHandThumb1 -26.253704 0.000000 33.147579
RightShoulder -7.541434 2.465336 -30.957446
RightArm 12.616021 14.440960 39.771149
RightForeArm -15.512727 -0.000000 1.016963
RightHand 0.541482 -0.000000 1.494731
RightHandThumb1 -24.326973 -0.000000 -32.862282
LeftUpLeg -4.770576 -7.532232 1.905989
LeftLeg -1.472531 -0.000000 0.000000
LeftFoot -7.399875 8.316200 -17.322794
LeftToeBase -6.152211 -0.000000 0.000000
RightUpLeg -3.341306 5.844544 4.206418
RightLeg -3.340770 -0.000000 0.000000
RightFoot -5.587849 -15.283295 6.110033
RightToeBase -4.616216 -0.000000 0.000000
